<svg width="68" height="77" viewBox="0 0 68 77" fill="none" xmlns="http://www.w3.org/2000/svg">
<path d="M47.1625 45.7188C42.8463 45.7188 40.7709 48.125 33.6875 48.125C26.6041 48.125 24.5437 45.7188 20.2125 45.7188C9.05352 45.7188 0 54.7723 0 65.9313V69.7812C0 73.7666 3.2334 77 7.21875 77H60.1562C64.1416 77 67.375 73.7666 67.375 69.7812V65.9313C67.375 54.7723 58.3215 45.7188 47.1625 45.7188ZM60.1562 69.7812H7.21875V65.9313C7.21875 58.7727 13.0539 52.9375 20.2125 52.9375C22.4082 52.9375 25.9725 55.3438 33.6875 55.3438C41.4627 55.3438 44.9518 52.9375 47.1625 52.9375C54.3211 52.9375 60.1562 58.7727 60.1562 65.9313V69.7812ZM33.6875 43.3125C45.6436 43.3125 55.3438 33.6123 55.3438 21.6562C55.3438 9.7002 45.6436 0 33.6875 0C21.7314 0 12.0312 9.7002 12.0312 21.6562C12.0312 33.6123 21.7314 43.3125 33.6875 43.3125ZM33.6875 7.21875C41.6432 7.21875 48.125 13.7006 48.125 21.6562C48.125 29.6119 41.6432 36.0938 33.6875 36.0938C25.7318 36.0938 19.25 29.6119 19.25 21.6562C19.25 13.7006 25.7318 7.21875 33.6875 7.21875Z" fill="#560E0E"/>
</svg>
