<svg width="108" height="84" viewBox="0 0 108 84" fill="none" xmlns="http://www.w3.org/2000/svg">
<path d="M52.5072 21.7624L17.9806 50.1991V80.8905C17.9806 81.6852 18.2962 82.4473 18.8582 83.0092C19.4201 83.5712 20.1822 83.8868 20.9769 83.8868L41.9621 83.8325C42.7542 83.8286 43.5125 83.5111 44.0712 82.9497C44.6298 82.3882 44.9435 81.6283 44.9435 80.8362V62.9128C44.9435 62.1181 45.2591 61.356 45.821 60.7941C46.383 60.2322 47.1451 59.9165 47.9397 59.9165H59.9249C60.7196 59.9165 61.4817 60.2322 62.0436 60.7941C62.6055 61.356 62.9212 62.1181 62.9212 62.9128V80.8231C62.92 81.2174 62.9966 81.608 63.1466 81.9726C63.2966 82.3372 63.5171 82.6687 63.7955 82.9479C64.0738 83.2271 64.4046 83.4486 64.7687 83.5998C65.1328 83.751 65.5232 83.8288 65.9175 83.8288L86.8953 83.8868C87.69 83.8868 88.4521 83.5712 89.014 83.0092C89.5759 82.4473 89.8916 81.6852 89.8916 80.8905V50.1785L55.3724 21.7624C54.9666 21.4353 54.4611 21.257 53.9398 21.257C53.4186 21.257 52.913 21.4353 52.5072 21.7624ZM107.045 41.0904L91.3897 28.1857V2.24722C91.3897 1.65122 91.153 1.07963 90.7315 0.658196C90.3101 0.23676 89.7385 0 89.1425 0H78.6555C78.0595 0 77.4879 0.23676 77.0665 0.658196C76.645 1.07963 76.4083 1.65122 76.4083 2.24722V15.8448L59.6421 2.05059C58.0332 0.726562 56.0142 0.00264675 53.9305 0.00264675C51.8467 0.00264675 49.8278 0.726562 48.2188 2.05059L0.815551 41.0904C0.587997 41.2785 0.399731 41.5096 0.261512 41.7704C0.123293 42.0313 0.0378296 42.3168 0.0100042 42.6107C-0.0178213 42.9047 0.012537 43.2012 0.0993444 43.4833C0.186152 43.7655 0.327707 44.0278 0.515922 44.2552L5.29126 50.0606C5.47897 50.2888 5.70984 50.4778 5.97067 50.6167C6.2315 50.7556 6.51716 50.8417 6.8113 50.87C7.10545 50.8984 7.40229 50.8684 7.68485 50.7819C7.96741 50.6954 8.23013 50.554 8.45797 50.3658L52.5072 14.0844C52.913 13.7573 53.4186 13.579 53.9398 13.579C54.4611 13.579 54.9666 13.7573 55.3724 14.0844L99.4236 50.3658C99.651 50.554 99.9133 50.6956 100.195 50.7824C100.478 50.8692 100.774 50.8996 101.068 50.8717C101.362 50.8439 101.648 50.7584 101.908 50.6202C102.169 50.482 102.4 50.2937 102.588 50.0662L107.364 44.2609C107.552 44.0321 107.693 43.7684 107.778 43.485C107.864 43.2016 107.893 42.9041 107.864 42.6095C107.834 42.3148 107.747 42.029 107.606 41.7683C107.466 41.5076 107.275 41.2772 107.045 41.0904Z" fill="#560E0E"/>
</svg>
