<svg width="93" height="71" viewBox="0 0 93 71" fill="none" xmlns="http://www.w3.org/2000/svg">
<path d="M91.695 38.5638L60.6995 69.5593C57.9321 72.3268 53.1351 70.3895 53.1351 66.4229V48.7111H28.0435C25.5897 48.7111 23.6156 46.737 23.6156 44.2832V26.5715C23.6156 24.1177 25.5897 22.1436 28.0435 22.1436H53.1351V4.43185C53.1351 0.483616 57.9136 -1.47205 60.6995 1.2954L91.695 32.2909C93.4108 34.0252 93.4108 36.8295 91.695 38.5638ZM35.4234 68.6368V61.2569C35.4234 60.0393 34.4271 59.043 33.2095 59.043H17.7117C14.4461 59.043 11.8078 56.4047 11.8078 53.1391V17.7156C11.8078 14.45 14.4461 11.8117 17.7117 11.8117H33.2095C34.4271 11.8117 35.4234 10.8154 35.4234 9.59777V2.21789C35.4234 1.00021 34.4271 0.00392399 33.2095 0.00392399H17.7117C7.93337 0.00392399 0 7.9373 0 17.7156V53.1391C0 62.9174 7.93337 70.8508 17.7117 70.8508H33.2095C34.4271 70.8508 35.4234 69.8545 35.4234 68.6368Z" fill="#560E0E"/>
</svg>
